# xmcd
#
# Track frame offsets:
#	150
#	16200
#	31350
#	48450
#	66750
#	82575
#	99582
#	117357
#	137157
#	155082
#	171657
#	188082
#	206232
#	221832
#	239382
#	254982
#	273582
#	291432
#	307632
#
# Disc length: 4372
#
# Revision: 1
# Processed by: cddbd v1.5.1PL0 Copyright (c) Steve Scherf et al.
# Submitted via: dBpowerAMP V4.0
# Normalized: r0:DSETVAR1,TDELIM( - )
#
DISCID=23111213
DTITLE=Various Artist - Hit List Cd 29
DYEAR=1900
DGENRE=Dance
TTITLE0=Bryan Adams - The Best Of Me
TTITLE1=Christina Aguilera - What A Girl Wants
TTITLE2=Faithless - Why Go (Lange Radio Mix)
TTITLE3=Kai Tracid - Destiny's Path
TTITLE4=Mumitrolj - Nevesta
TTITLE5=Queen and David Bowie - Under Pessure'99
TTITLE6=TLC - Dear Lie
TTITLE7=Whitney Houston - I Learned From The Best (HQ2 Radio Mix)
TTITLE8=Andru Donalds - Snowing Under My Skin (Christmas Version)
TTITLE9=Ann Lee - Two Times (X-Mas Version)
TTITLE10=DJ 2000 - New Lang Syne
TTITLE11=Dj BoBo - Come Take My Hand (Christmas Time)
TTITLE12=Fusion - You Make Me Feel (X-Mas Version)
TTITLE13=In-Mood feat. Juliette - Childhood Dreams (X-Mas Edition)
TTITLE14=Junia - Who Is The Other Woman (X-MAs Mix)
TTITLE15=Marc - Are You Coming Home For Christmas
TTITLE16=Passion Fruit - Do You Remember (Sangri-La)(Christmas Version)
TTITLE17=Pegah - A Whiter Shade Of Pale (Cchristmas Version)
TTITLE18=Scooter - Dutch Christmas
EXTD=
EXTT0=
EXTT1=
EXTT2=
EXTT3=
EXTT4=
EXTT5=
EXTT6=
EXTT7=
EXTT8=
EXTT9=
EXTT10=
EXTT11=
EXTT12=
EXTT13=
EXTT14=
EXTT15=
EXTT16=
EXTT17=
EXTT18=
PLAYORDER=
